<?xml version="1.0" encoding="UTF-8"?>
<svg xmlns="http://www.w3.org/2000/svg" version="1.1" viewBox="0 0 700 1080">
  <!-- Generator: Adobe Illustrator 29.4.0, SVG Export Plug-In . SVG Version: 2.1.0 Build 152)  -->
  <defs>
    <style>
      .st0 {
        display: none;
      }

      .st1 {
        fill: #781144;
      }

      .st2 {
        display: none;
        fill: #bc2726;
        stroke: #1d1d1b;
        stroke-miterlimit: 10;
      }
                                                    
    </style>
  </defs>
  <g id="Vrstva_1">
    <g>
      <path class="st1" d="M194.55,0c.83,19.23-1.12,39.37,0,58.49,1.9,32.19,18.03,88.3,30.49,118.47,23.45,56.77,76.37,51.29,126.63,58.19,42.67,5.86,100.68,14.55,141.44,26.36,16.12,4.67,53.69,17.21,37.39,40.43-21.92,31.24-122.42,37.36-158.42,44.36-14.99,2.91-29.86,8.75-45.19,9.75-25.42,1.66-55.52-7.8-67.17,21.73-13.85,35.11-11.09,83.03-15.37,120.61-7.49,65.69-47.04,130.34-68.82,192.08-35.1,99.48,6.59,189.17,16.02,288.05,3.22,33.72,3.2,67.63,3,101.5h-61.91l.04-84.54c-.8-60.13-17.32-119.37-22-178.97-5.4-68.74,14.58-137.16,36.67-201.26,13.49-39.14,34.1-79.95,36.26-121.69,1.78-34.36-2.75-106.6,15.12-134.86,17.96-28.43,70.88-26.88,100.22-26.72,38.15.22,80.46-5.97,118.5-12.25,17.79-2.93,95.1-20.38,42.25-39.73-31.16-11.41-102.56-22.28-135.87-22.03-52.53.39-88.22,1.76-131.28-33.44-33.45-27.35-52.27-93.14-57.76-135.16C130.92,59.81,133.3,29.75,132.64,0h61.91Z"/>
      <path class="st1" d="M284.42,0c.75,17.92-1.02,36.65,0,54.49,1.11,19.24,6.37,40.93,11.48,59.51s13.97,51.84,25.44,65.53c30.96,36.96,134.65,50.51,181.76,64.98,24.28,7.46,70.14,25.31,54.11,59.18-16.93,35.78-107.36,51.21-142.98,61.82-22.6,6.73-46.52,16.23-54.21,40.72-6.23,19.84-9.02,43.38-14.98,64-12.67,43.86-34.54,97.64-53.46,139.46-27.9,61.65-87.81,95.05-70.76,174.51,10.48,48.84,40.22,62.88,61.77,102.15,30.95,56.4,17.47,81.48,5.31,138.66-3.98,18.74-3.96,35.89-3.48,55.01h-61.91c-.08-19.5.08-39.03.04-58.54-.07-32.64.28-64.43-7.32-96.67-15.97-67.73-48.73-135.09-30.58-206.21,9.47-37.12,30.75-64.29,46.03-97.91,16.1-35.42,35.66-83.79,43.3-121.64,6.51-32.26,7.62-66.55,16.72-98.25,9.64-33.59,21.64-26.81,50.64-35.29,11.33-3.31,22.11-8.29,33.74-11.21,44.68-11.19,120.61-12.81,157-42.78,32.55-26.81-4.4-46-29.2-53.78-60.16-18.86-130.31-23.61-192.12-38.6-41.6-10.09-51.15-26.64-63.98-64.92-8.52-25.44-18.08-54.54-21.95-81.01C221.25,48.84,222.79,24.56,222.51,0h61.91Z"/>
      <path class="st1" d="M554.03,0l-.04,154.54c.11,40.7,35.89,64.1,50.83,100.1,22.32,53.79-4.22,86.79-23.29,133.39-20.12,49.15-10.28,103.63-17.65,155.32-8.97,62.94-44.05,127.41-40.85,191.2,3.78,75.39,62.4,128.11,53.96,204.93-2.9,26.39-12.53,48.1-18.9,73.07-5.79,22.67-3.87,44.26-4.05,67.44h-61.91c-.28-22.17-1.54-40.49,5.82-61.68,15.14-43.61,39.67-72.13,22.6-122.28-20.45-60.09-67.9-64.55-99.15-108.71-49.43-69.86,33.33-111.87,63.91-165.66,23.3-40.99,36.28-83.72,37.82-131.13,1.08-33.28-8.4-63.21,11.53-92.45,26.79-39.3,79.5-72.65,59.09-129.35-14.09-39.15-53.17-53.63-80.66-79.22-23.71-22.07-16.8-50.6-21-79.97L492.12,0h61.91Z"/>
      <path class="st1" d="M464.16,0v96.49c2.56,20.24,2.2,42.96,7.29,62.71,13.33,51.76,106.5,56.19,120.06,120.76,11.07,52.72-47.55,83.76-75.94,117.03-22.9,26.84-12.78,64.21-14.42,97.56-2.16,43.98-22.41,98.72-49.57,133.36-23.48,29.94-62.22,60.95-78.88,94.98-16.75,34.21,6.88,61.51,28.58,86.6,32.31,37.37,72.73,46.84,87.35,100.53,10.96,40.27-7.17,65.37-18.76,101.21-7.5,23.18-5.76,44.71-5.7,68.79h-61.91c1.15-24.08-1.54-49.56.01-73.49,1.67-25.82,12.06-50.8,9.96-76.99-2.49-31.16-32.75-80.65-54.26-103.17-17.93-18.78-43.15-33.19-52.35-59.08-15.19-42.74,29.78-73.09,54.21-100.26,13-14.46,24.56-30.97,33.96-47.99,24.27-43.97,47.77-87.06,54.27-137.65,4.2-32.65-1.88-70.88,26.76-92.2,34.04-25.34,116.49-51.96,105.73-107.23-11.79-60.6-127.02-61.83-159.13-115.64-8.73-14.63-15.12-53.08-17.16-70.81C400.62,63.86,402.9,31.79,402.25,0h61.91Z"/>
      <path class="st1" d="M374.29,0c.49,29.12-1.46,58.42,2.14,87.36,2.45,19.73,8.38,50.23,15.36,68.62,24.79,65.38,157.26,61.4,181.7,118.04,23.1,53.51-63.39,83.96-97.7,101.13-19,9.5-36.88,17.18-42.31,39.63-7.35,30.36-9.02,62.11-17.77,92.21-8.21,28.26-21.7,51.16-33.63,77.32-6.36,13.96-10.61,29.1-17.05,42.93-26.92,57.87-130.92,101.03-59.68,175.29,28.39,29.6,45.53,34.18,64.11,75.79,29.34,65.69,8.5,91.55,4.83,155.19-.88,15.22.63,31.19,0,46.49h-61.91c-.64-17.51-.21-32.91,3.48-50.01,4.52-20.94,12.77-41.19,15.37-62.61,4.2-34.69-5.03-65.22-23.42-94.3-21.95-34.69-53.6-43.84-66.04-88.86-21.16-76.55,42.28-105.58,69.79-162.54,17.16-35.52,34.63-83.52,47.78-121.16,5.77-16.52,11.36-33.33,15.67-50.3,8.63-33.92,3.27-56.91,39.26-73.68,37.51-17.48,133.86-32.35,149.24-74.55,13.83-37.95-38.64-55.94-65.63-64.25-40.52-12.47-120.39-27.33-149.06-57.72-14.23-15.08-26.78-66.35-31.13-87.82C311.41,61.22,311.98,31.47,312.38,0h61.91Z"/>
    </g>
  </g>
</svg>